<svg xmlns:dc="http://purl.org/dc/elements/1.1/" xmlns:cc="http://creativecommons.org/ns#" xmlns:rdf="http://www.w3.org/1999/02/22-rdf-syntax-ns#" xmlns:svg="http://www.w3.org/2000/svg" xmlns="http://www.w3.org/2000/svg" viewBox="0 0 280 280" fill="none"><metadata><rdf:RDF><cc:Work><dc:format>image/svg+xml</dc:format><dc:type rdf:resource="http://purl.org/dc/dcmitype/StillImage"/><dc:title>Avataaars</dc:title><dc:creator><cc:Agent><dc:title>Pablo Stanley</dc:title></cc:Agent></dc:creator><dc:source>https://avataaars.com/</dc:source><cc:license rdf:resource="https://avataaars.com/"/><dc:contributor><cc:Agent><dc:title>Florian Körner</dc:title></cc:Agent></dc:contributor></cc:Work></rdf:RDF></metadata><mask id="avatarsRadiusMask"><rect width="280" height="280" rx="0" ry="0" x="0" y="0" fill="#fff"/></mask><g mask="url(#avatarsRadiusMask)"><g transform="translate(40, 36)"><path d="M100 0C69.072 0 44 25.072 44 56v6.166c-5.675.952-10 5.888-10 11.834v14c0 6.052 4.48 11.058 10.305 11.881 2.067 19.806 14.458 36.541 31.695 44.73V163h-4c-39.764 0-72 32.236-72 72v9h200v-9c0-39.764-32.236-72-72-72h-4v-18.389c17.237-8.189 29.628-24.924 31.695-44.73C161.52 99.058 166 94.052 166 88V74c0-5.946-4.325-10.882-10-11.834V56c0-30.928-25.072-56-56-56z" fill="#EDB98A"/><path d="M76 144.611v8A55.79 55.79 0 00100 158a55.789 55.789 0 0024-5.389v-8A55.789 55.789 0 01100 150a55.79 55.79 0 01-24-5.389z" fill="#000" fill-opacity=".1"/></g><g transform="translate(8, 170)"><path d="M132.5 65.828c27.338 0 49.5-13.199 49.5-29.48 0-1.363-.155-2.704-.456-4.017C210.784 41.487 232 68.791 232 101.052V110H32v-8.948c0-32.655 21.739-60.232 51.534-69.05A18.001 18.001 0 0083 36.348c0 16.281 22.162 29.48 49.5 29.48z" fill="#B1E2FF"/></g><g transform="translate(86, 134)"><path fill-rule="evenodd" clip-rule="evenodd" d="M40 15c0 7.732 6.268 14 14 14s14-6.268 14-14" fill="#000" fill-opacity=".7"/></g><g transform="translate(112, 122)"><path fill-rule="evenodd" clip-rule="evenodd" d="M16 8c0 4.418 5.373 8 12 8s12-3.582 12-8" fill="#000" fill-opacity=".16"/></g><g transform="translate(84, 90)"><path d="M26.998 16c-4.834 0-8.991 2.648-10.838 6.447-.54 1.111.387 1.853 1.277 1.125 2.437-1.993 5.82-3.228 9.56-3.228.082 0 .163 0 .244.002a6 6 0 1010.699 2.8 2 2 0 00-.125-.739 7.55 7.55 0 00-.144-.372 6.007 6.007 0 00-1.646-2.484C33.9 17.317 30.507 16 26.998 16zm58 0c-4.834 0-8.991 2.648-10.838 6.447-.54 1.111.387 1.853 1.278 1.125 2.436-1.993 5.82-3.228 9.56-3.228.08 0 .162 0 .243.002a6 6 0 1010.699 2.8 2 2 0 00-.125-.739 7.55 7.55 0 00-.144-.372 6.007 6.007 0 00-1.646-2.484C91.9 17.317 88.506 16 84.998 16z" fill="#000" fill-opacity=".6"/></g><g transform="translate(84, 82)"><path fill-rule="evenodd" clip-rule="evenodd" d="M22.766 1.578l.911-.402C28.92-.905 36.865-.033 41.723 2.299c.567.272.18 1.153-.402 1.108-14.919-1.151-24.963 8.146-28.375 14.44-.101.187-.407.208-.482.034-2.308-5.319 4.45-13.985 10.302-16.303zM86.993 12.07c5.761.773 14.746 5.795 13.994 11.607-.024.19-.312.25-.436.091-2.487-3.188-21.712-7.872-28.713-6.894-.641.09-1.064-.571-.627-.984 3.744-3.536 10.62-4.518 15.782-3.82z" fill="#000" fill-opacity=".6"/></g><g transform="translate(7, 0)"><path d="M177.747 37.856c9.527 7.102 17.761 18.582 18.159 30.824.175 5.507-.617 11.227-1.722 16.616-.504 2.463-1.609 4.661-2.709 6.85-1.066 2.125-2.129 4.24-2.638 6.583-2.627-8.925-10.084-13.97-17.504-18.99-3.953-2.674-7.896-5.341-11.091-8.584 1.016 1.93 2.305 3.695 3.591 5.454 1.24 1.698 2.477 3.392 3.461 5.224-9.247-5.665-18.206-13.88-22.032-24.295-.707 5.398-2.716 10.39-6.108 14.666-3.011 3.796-7.582 7.87-12.295 9.34 2.427-5.507 4.502-11.217 6.407-16.925-1.784 2.316-7.221 11.286-9.611 15.23l-.764 1.26c-1.656 2.72-3.513 5.317-5.507 7.803-.933 1.163-1.929 2.287-2.931 3.391a67.9 67.9 0 01-1.787 1.895c-.041.041-.132.139-.246.261-.492.527-1.421 1.52-.666.545-1.858 2.35-4.451 4.26-6.911 6.07-.473.349-.942.695-1.4 1.039-2.852 2.144-5.96 3.968-9.19 5.476-7.097 3.313-14.383 4.538-22.114 3.199.903.101 2.352-.405 3.53-.817.466-.163.889-.311 1.22-.401 1.809-.492 3.474-1.117 5.113-2.024a53.849 53.849 0 009.176-6.418c-1.365.581-2.6 1.423-3.842 2.27-1.224.834-2.454 1.673-3.822 2.273-2.287 1.003-4.547 1.526-7.032 1.766-5.462.529-11.995-.72-16.721-3.587-5.492-3.333-8.542-9.051-9.99-15.137-1.68-7.067-.636-15.04 3.328-21.074.135 2.143 4.436 3.064 7.916 2.527 3.774-.582 6.95-6.52 10.913-13.926 6.178-11.548 14.268-26.669 29.514-30.64 19.961-5.2 34.209 3.874 35.42 4.657 1.214.784 1.795.629 2.93.326.209-.056.437-.117.691-.178 6.346-1.52 13.258-2.209 19.705-.927 6.34 1.262 12.418 4.546 17.559 8.378z" fill="#ECDCBF"/><path d="M71.933 110.752c.069.012.137.025.206.036a1.6 1.6 0 01-.206-.036zm7.073 45.439c.8-1.518 1.567-3.052 2.31-4.597A56.209 56.209 0 00109 180.611v8.999a54.395 54.395 0 01-7.726 1.96c-9.013 1.617-34.325-3.528-45.445-11.982-.848-.645-.418-1.917.67-1.992 11.66-.797 17.627-12.134 22.405-21.212l.102-.193zM157 183.053v-2.442a56.18 56.18 0 0018.127-13.713c.715 2.24 1.748 4.333 3.428 5.788 1.321 1.144 3.486 1.127 5.341 1.113h.001a31.76 31.76 0 011.202.004 69.91 69.91 0 005.016-.019c.839-.037 1.213 1.014.534 1.498a8.06 8.06 0 01-.39.262 39.194 39.194 0 01-3.25 1.812c-2.524 1.258-5.187 2.244-7.982 2.734-1.916.337-3.816.4-5.654.177a9.842 9.842 0 001.699 1.941c1.409 1.223 3.72 1.204 5.699 1.189.45-.004.883-.007 1.284.004 1.785.052 3.571.057 5.353-.02.896-.039 1.295 1.084.57 1.601a7.974 7.974 0 01-.416.28 41.968 41.968 0 01-3.468 1.937c-2.694 1.345-5.537 2.398-8.519 2.922-5.499.966-10.869-.177-15.194-3.708a24.898 24.898 0 01-3.381-3.36z" fill="#ECDCBF"/><path d="M81.315 151.594a140.115 140.115 0 01-2.309 4.597l-.102.193c-4.778 9.078-10.745 20.415-22.404 21.212-1.09.075-1.52 1.347-.671 1.992 11.12 8.454 36.432 13.599 45.445 11.982a54.395 54.395 0 007.726-1.96v-8.999a56.205 56.205 0 01-27.685-29.017zM157 180.611v2.442a24.898 24.898 0 003.381 3.36c4.325 3.531 9.695 4.674 15.194 3.708 2.982-.524 5.825-1.577 8.519-2.922a41.968 41.968 0 003.468-1.937c.139-.087.278-.181.416-.28.725-.517.326-1.64-.57-1.601a74.062 74.062 0 01-5.353.02 36.241 36.241 0 00-1.284-.004c-1.979.015-4.29.034-5.699-1.189a9.842 9.842 0 01-1.699-1.941c1.838.223 3.738.16 5.654-.177 2.795-.49 5.458-1.476 7.982-2.734a39.194 39.194 0 003.25-1.812c.13-.081.26-.17.39-.262.679-.484.305-1.535-.534-1.498a69.91 69.91 0 01-5.016.019 31.82 31.82 0 00-1.203-.004c-1.855.014-4.02.031-5.341-1.113-1.68-1.455-2.713-3.548-3.428-5.788A56.18 56.18 0 01157 180.611z" fill="#000" fill-opacity=".16"/></g></g></svg>