<svg xmlns:dc="http://purl.org/dc/elements/1.1/" xmlns:cc="http://creativecommons.org/ns#" xmlns:rdf="http://www.w3.org/1999/02/22-rdf-syntax-ns#" xmlns:svg="http://www.w3.org/2000/svg" xmlns="http://www.w3.org/2000/svg" viewBox="0 0 762 762" fill="none"><metadata><rdf:RDF><cc:Work><dc:format>image/svg+xml</dc:format><dc:type rdf:resource="http://purl.org/dc/dcmitype/StillImage"/><dc:title>Adventurer</dc:title><dc:creator><cc:Agent><dc:title>Lisa Wischofsky</dc:title></cc:Agent></dc:creator><dc:source>https://www.instagram.com/lischis_adventures/</dc:source><cc:license rdf:resource="https://creativecommons.org/licenses/by/4.0/"/></cc:Work><cc:License rdf:about="https://creativecommons.org/licenses/by/4.0/"><cc:permits rdf:resource="https://creativecommons.org/ns#Reproduction"/><cc:permits rdf:resource="https://creativecommons.org/ns#Distribution"/><cc:permits rdf:resource="https://creativecommons.org/ns#DerivativeWorks"/><cc:requires rdf:resource="https://creativecommons.org/ns#Notice"/><cc:requires rdf:resource="https://creativecommons.org/ns#Attribution"/></cc:License></rdf:RDF></metadata><mask id="avatarsRadiusMask"><rect width="762" height="762" rx="0" ry="0" x="0" y="0" fill="#fff"/></mask><g mask="url(#avatarsRadiusMask)"><path d="M396.01 164.85c37.82 4.9 74.21 19.64 104.8 42.39 6.15 4.84 12.48 9.33 18.02 14.92 23.77 21.98 42.73 49.02 55.13 78.95 9.35 22.31 14.72 46.04 16.64 70.14 6.62.81 13.05 2.14 19.12 5 15.54 6.93 27.08 20.94 31.78 37.21 2.63 9.56 3.56 19.75 1.72 29.55-2.96 18.76-13.72 36.13-29.37 46.92-10.94 7.65-24.49 12.03-37.86 11.68-5.13-.05-10.04-1.6-15.13-1.79-1.85 2.17-3.23 4.84-4.76 7.25-18.66 29.62-44.57 54.51-74.64 72.4-28.1 16.73-59.9 27.16-92.46 30.32-11.08.7-21.87 2.05-32.98.74-51.69-2.3-102.07-23.44-140.15-58.43-29.03-26.55-50.84-60.83-62.54-98.39-7.09-22.85-10.62-46.78-10.07-70.71.52-40.34 12.53-80.58 33.94-114.76 19.1-30.81 45.91-56.58 77.2-74.83 29.63-17.28 63.35-27.68 97.59-29.87 14.66-1.47 29.44-.37 44.02 1.31Z" fill="#000"/><path d="M363 169.06c48.47-1.39 97.32 14.7 135.81 44.12 6.55 4.06 11.72 9.49 17.36 14.64 24.33 22.63 43.2 50.95 54.93 82.02 7.43 19.61 11.86 40.2 13.56 61.09-8.89.74-17.34 2.34-25.38 6.38-2.19 1.03-1.89 4.95.68 5.23 2.35.23 4.98-1.51 7.24-2.2 14.62-5.37 31.32-4.35 44.78 3.68 11.69 6.78 20.09 18.16 23.89 31.06 2.6 8.25 2.68 17.41 1.76 25.95-2.5 17.35-12.35 33.73-26.73 43.81-15.71 11.33-37.17 14.64-54.93 6.2-3.17-1.43-5.94-3.58-9.08-5.05-2.95-1.09-4.88 2.79-2.7 4.75 3.17 2.76 7.34 4.52 11 6.56-20.14 34.15-49.45 62.7-84.41 81.47-30.2 16.31-64.44 25.53-98.78 26.15-27.63.72-55.33-4.04-81.21-13.72-30.32-11.24-57.84-29.43-80.37-52.6-22.67-23.37-39.92-51.88-50.2-82.77-14.96-44.64-14.91-94.01.27-138.59 11.05-33.06 30.28-63.21 55.37-87.39 29.67-28.73 67.65-48.54 108.13-56.67 12.8-2.52 25.94-4.24 39.01-4.12Z" fill="rgba(236, 173, 128, 1)"/><path d="M605.03 404.4c2.63-.1 3.44 3.8 1.36 4.98-3.69 1.83-7.82 2.77-11.64 4.35-5.82 2.04-11.28 4.76-16.68 7.72 4.29 2.34 8.86 4.74 12.71 7.76 2.58 2.09 4.85 4.35 5.33 7.8-.26 3.59-2.73 6.55-5.45 8.69-5.86 4.66-13.92 7.18-20.79 10.26-1.75.62-4.43 1.99-5.59-.26-1.02-1.74-.06-3.11 1.57-3.87 6.65-3.3 14.86-5.62 20.79-10.16 1.37-1.14 3.39-2.74 3.61-4.62-4.07-5.63-12.42-8.59-18.23-12.09-2.34-1.72-2.29-4.24-.16-6.13 7.27-5.64 16.98-9.26 25.57-12.38 2.42-.83 5.03-1.95 7.6-2.05Z" fill="#000"/><g transform="translate(-161 -83)"><path d="M494.83 474.61c2.51.17 5.02 1.39 7.38 2.24 9.33 3.65 18.8 6.05 28.52 8.37 20.93 5.06 42.75 8.76 64.32 6.83 7.36-.98 14.7-2.38 21.99-3.8 2.53-.69 5.45.75 5.17 3.64-.56 6.56-1.63 13.23-3.9 19.44-5.27 14.83-16.11 27.53-29.89 35.11-9.8 5.51-21.19 8.31-32.42 8.09-17.65-.05-34.84-7.8-46.86-20.68-7.23-7.66-11.98-16.88-15.38-26.78 1.24 7.98 2.51 15.76 6.26 23.03 3.03 6.01 7.26 10.92 11.61 15.99-1.15 1.33-2.54 3.26-4.48 1.98-3.61-2.64-6.29-6.76-8.86-10.36-6.2-8.96-8.75-19.54-10-30.22-.99-7.27.07-15.03 1.27-22.23.76-3.53 1.94-8.67 5.27-10.65ZM436.11 479.84c2.2.74 3.17 3.02 4.14 4.93 5.57 12.06 7.7 26.28 4.75 39.31-1.56 8.46-5.54 17.15-12.02 22.96-1.59 1.63-3.44 1.53-5.55 1.47a14.54 14.54 0 0 1-.05-3.16c2.13-2.57 4.79-4.51 6.55-7.43 5.1-7.77 6.2-16.21 7.05-25.25-2.4 10.15-6.94 19.55-14.24 27.08-8.3 8.76-19.55 14.63-31.49 16.39-14.13 2.2-29.06-1.34-40.6-9.82-9.1-6.53-15.98-15.92-19.7-26.46-.62-1.89-1.23-4.36-.54-6.29 1.6-1.44 3.52-1.87 5.61-2.03 8.8-.59 17.33-2.62 26.08-4.44 7.47-1.54 14.64-3.89 21.94-6.06 9.57-3.12 18.95-7.7 28.15-11.8 5.21-2.33 10.21-5.07 15.18-7.86 1.41-.7 3.12-1.76 4.74-1.54Z" fill="#000"/><path d="M497.89 481.07c4.93 1.84 9.74 3.81 14.84 5.15 13.85 3.68 28.08 7.8 42.3 9.62 2.57.4 5.13.95 7.69 1.46.66 7.27 3.8 13.87 9.84 18.14 9.45 6.94 23.73 5.49 31.27-3.61 4.15-4.66 5.55-10.31 5.95-16.41 2.17-.36 4.33-.73 6.5-1.09-1.89 21.43-15.6 41.02-35.47 49.48-12.02 5.3-25.27 6.53-38.05 3.38-15.24-3.69-28.84-13.59-36.88-27.07-6.41-10.7-9.56-23.58-8.41-36.02.13-1.01.27-2.02.42-3.03ZM433.78 486.25c2.2 7.46 3.34 15.04 1.9 22.78a49.419 49.419 0 0 1-17.13 30.52c-9.03 7.65-20.76 11.68-32.57 11.61-9.68-.32-19.25-3.38-27.2-8.94-8.85-6.18-15.31-15.02-18.77-25.22 14.82-1.83 29.68-4.49 43.99-8.81 2.75 9.71 10.67 17.13 20.91 17.95 10.19 1.12 20.01-4.88 23.99-14.24 3.02-7.1 2.31-15.78-1.86-22.3 2.23-1.14 4.46-2.34 6.74-3.35Z" fill="#fff"/></g><g transform="translate(-161 -83)"><g fill="#000"><path d="M545.03 378.5c24.7.94 48.04 8.97 69.45 20.99 2.26 1.32 4.92 2.49 6.79 4.33 1.3 2.39-.38 5.13-3.2 4.19-16.58-6.21-33.56-9.63-51.06-12.02-20.3-2.34-39.92-3.68-60.2-.13-3.2.44-6.87 2.16-10.08 1.59-2.66-1.69-1.2-6.1 1.29-7.37 13.63-9.33 30.79-12.1 47.01-11.58ZM407.99 396.92c3.51.64 6.6 1.92 9.63 3.78-.15 1.2-.26 2.4-.33 3.62-2.7.74-5.46 1.12-8.24 1.34-13.17 1.15-26.45 5.11-38.81 9.69-12.23 4.75-24.78 10.64-35.19 18.71-2.82 2.03-4.13 4.82-8.08 4.47-.5-.9-1-1.79-1.51-2.67.89-1.59 1.68-3.17 2.76-4.64 9.55-13.17 23.64-23.22 38.61-29.35 12.7-5.15 27.61-8.05 41.16-4.95Z"/></g></g><g transform="translate(-161 -83)"><path d="M480.96 561.69c4.71-.58 10.26.05 13.71 3.66 3.78 3.91 4.15 9.42 3.22 14.53-2.64 11.8-12.86 21.43-24.83 23.27-7.5 1.49-15.57-.3-22.15-4.05-5.15-2.91-8.86-7.64-11.08-13.06-1.31-3.29-1.62-7.23-.43-10.59 1.3-3.11 4.12-5 7.34-5.69 5.66-1.84 11.66.26 16.63 3.04 4.58-5.09 10.57-10.17 17.59-11.11Z" fill="#000"/><path d="M480.51 567.7c3.29-1.03 7.38-.57 10 1.78 2.06 2.03 2.11 5.89 1.71 8.56-1.84 9.78-10.28 17.74-20.07 19.32-6.52 1.31-13.19-.33-18.84-3.68-4.3-2.52-7.44-6.98-8.81-11.72-.7-2.45-.36-5.07 2.04-6.38 2.59-1.08 5.76-1.02 8.48-.49 3.48.7 5.8 2.91 8.97 4.32 1.93-.09 2.62-1.39 3.81-2.64 3.32-3.94 7.69-7.62 12.71-9.07Z" fill="#8F2E45"/></g><g transform="translate(-161 -83)"/><g transform="translate(-161 -83)"><path d="M754.859 186.13c14.91 13.66 25.21 32.12 28.95 52 5.36 42.98 5.42 85.9 11.9 128.86 4.51 31.79 10.67 66.12 25.47 94.89 10.32 20.51 21.8 40.49 31.79 61.17 8.63 17.69 13.95 37.27 14.83 56.95.89 11.46.38 23.45-.65 34.88-2.11 18.08-7.81 36.29-17.49 51.77-7.46 12.3-18.94 21.41-30.59 29.51-1.27.84-2.42 2.89-4.07 2.64-1.95-.08-2.91-2.08-2.52-3.83 10.86-21 13.11-46.4 6.57-69.07-.38-.97-.46-2.14-1.43-2.69-4.65 25.3-15.09 49.89-31.39 69.89-13.2 15.97-30.09 28.9-50.22 34.61-15.21 4.51-32.23 4.1-47.04-1.67-1.57-1.78-4.44-3.32-3.28-6.09 8.19-8.75 14.38-20.13 16.83-31.88-1.79.5-3.36 1.66-5.08 2.37-9.2 4.11-19.37 6.16-29.44 5.86-8.97.08-19.3-2.08-26.33-7.98-1.73-1.62-3.9-3.23-3.26-5.91 7.04-9.2 11.27-20.85 12.83-32.27.67-.92 1.86-1.46 2.76-2.14 26.06-18.21 47.33-42.21 63.45-69.54 1.06-2.29 3.48-2.79 5.69-1.92 13.69 4.19 28.66 2.46 41.31-4.1 14.51-7.44 25.69-20.6 31.11-35.94 3.53-9.45 4.3-19.52 3.26-29.5-1.8-13.96-8.77-27.13-19.84-35.94-5.9-5.66-14.04-9.12-21.98-10.7-11.01-2.45-22.92-.4-32.93 4.64 0 10.75-1.85 21.76-4.69 32.12-6.29 21.63-17.87 43.28-34.99 58.25-1.3 1.12-2.7 2.65-4.37 3.14-1.34.14-3.51-.9-3.5-2.47-.36-1.91 1.68-3.36 2.65-4.83 4.51-6.28 7.59-13.88 9.94-21.21 4.38-14.09 6.05-29.29 6.23-44-.32-26.06-5.09-52.36-16-76.15-.69-1.77-1.8-3.8-1.01-5.72 1.95-5.01 2.97-10.31 3.21-15.68-4.35 2.79-8.95 5.17-13.47 7.67-2.16 1.15-5.34 2.1-7.23-.02-1.19-3.4-1.02-7.54-.71-11.09.3-6.06.45-12.02-.02-18.07-6.88 3.68-13.31 7.46-20.62 10.4-2.44.91-5.32-.1-7.65-.94-11.58-4.69-21.05-13.78-29.28-22.94-4.65-5.4-8.97-10.7-11.78-17.33-2.6-5.98-3.63-12.16-3.68-18.67-13.67 7.3-31.08 6.14-46.1 6.25-15.95.26-32.18-.77-48.02 1.1-1.74.19-4.74-.78-4.85-2.87-.49-2.84 1.73-4.68 3.48-6.53-13.18 3.6-26.16 8.72-39.07 13.07-3.51.79-6.97 2.48-10.33.33-3.55-2.5-2.57-6.2-2.32-9.92-2.95-.08-6.01 1.32-8.78 2.24-13.5 5.21-27.18 9.88-40.97 14.27-9.56 2.87-19.08 5.05-29.14 4.8-4.78-.25-9.65.86-13.94 2.96-15.48.59-32.72-4.11-44.2-14.91-6.9-6.36-11.64-14.92-12.89-24.25-.62-6.78-.42-13.54 1.91-20.01 5.68-16.68 19.07-29.61 34.4-37.72 1.65-.77 3.89-2.39 5.68-1.32 1.76 1.03 1.96 3.35 1 4.98-14.57 15.12-16.16 40.04-5.77 57.86 4.46 7.27 10.89 14.19 19.55 16.06 2.58-15.05 10.8-29.04 20.48-40.63 13.73-16.47 31.23-30.31 49.38-41.61 34.84-21.45 74.34-35.78 114.89-41.32 22.38-2.75 44.5-3.04 66.47 2.66 17.03-22.1 42.49-37.25 70.03-41.66 30.68-5.39 63.88 3.6 86.87 24.84Z" fill="#000"/><path d="M680.979 165.89c27.94-1.65 56.25 9.18 75.23 29.91 10.91 11.74 18.43 26.62 21.63 42.31.6 6.95 1.88 13.8 2.21 20.78 1.23 9.67 1.4 19.44 2.49 29.11 1.15 22.58 3.1 45.52 5.66 67.99 3.98 29.06 8.08 57.12 17.65 85.02 5.74 16.68 14.05 31.38 22.24 46.87 7.79 14.92 16.15 29.7 22.87 45.13 11.92 27.38 13.56 58.58 9.4 87.85-3.21 18.49-10.4 37.48-22.45 52.07-4.56 4.96-9.7 9.84-15.26 13.66 4.4-12.31 6.31-25.55 5.71-38.59-.28-12.71-3.12-25.91-9.15-37.17-1.2-2.34-5.11-2.04-5.71.62-3.66 30.09-15.6 60.31-36.18 82.88-13.88 15.21-31.81 26.65-52.42 29.75-10.54 1.44-22.19.85-32.18-3.03 8.24-10.85 15.77-25.17 15.69-39.07.22-2.77-3.41-3.3-5.13-1.75-5.78 4.24-12.35 6.83-19.28 8.54-11.41 2.57-23.7 2.86-34.45-2.31-1.21-.8-3.79-1.83-4.24-3.16 5.64-9.12 9.61-19.19 11.48-29.76 1.48-1.96 4.12-3.13 5.98-4.77 23.89-17.86 43.76-40.5 58.94-66.15 4.83.34 9.41 1.81 14.29 1.88 21.53 1 42.52-10.21 55.09-27.47 8.44-11.28 13.18-25.01 14.02-39.03.62-18.88-6.34-37.62-20.86-50.05 3.54-5.84 5.3-12.29 6.53-18.95 3.13-19.67.15-40.73-4.39-59.99-4.74-18.55-11.52-36.48-20.99-53.15-3.58-15.09-8.4-29.8-15.79-43.49-12.52-23.74-31.87-43.69-55.43-56.59-1.2-.71-2.49-.84-3.83-1.09-10.19-14.34-26.8-23.36-44.34-24.36-5.05-.84-9.87-.08-14.9.04-3.35-2.5-7.01-3.22-11.1-3.47-6.01-.48-10.84 1.84-16.47-1.46 18.38-23.51 47.6-38.52 77.44-39.55Z" fill="rgba(62, 172, 44, 1)"/><path d="M593.99 208.04c1.09.36 2.29.26 2.9 1.34-2.41.64-4.74 1.47-7.07 2.36-26.33 7.83-51.59 19.56-75.02 33.85-8.19 5.03-16.1 10.58-23.49 16.73-1.54 1.24-1.61 3.33-.51 4.9 1.53.84 2.77.85 4.14-.29 14.24-11.67 30.15-21.13 46.54-29.44 19.52-9.74 40.3-18.27 61.65-22.94 6.38-1.02 13.52-2.57 19.89-1.36 2.27.38 4.28 1.72 6.5 2.38 3.02 1.26 6.2.24 9.48.28 4.33.09 8.76.22 13 1.19 12.54 2.14 24.06 9.03 31.97 18.98 10.1 12.53 14.95 28.43 17.34 44.12.95 7.61 1.83 15.19 1.56 22.86.04 2.17.09 5.7 3.12 5.51 2.15.08 2.86-1.6 2.84-3.49.14-21.14-2.99-41.81-12.35-60.94 14.14 8.34 26.53 19.89 36.41 32.97 14.63 19.46 23.37 42.14 27.79 65.96 4.75 25.45 4.3 52.36 1.01 77.98-.53 3.27-1.3 6.82-1.1 10.14 1.35 2.94 5.23 2.22 5.54-.98 1.68-8.89 2.66-18.12 3.17-27.15 1.6-16.27.9-32.1-.82-48.29.32 2.04 1.43 3.55 2.18 5.43 8.77 21.47 14.54 44.65 15.46 67.86.24 11.67-.62 25.34-6.35 35.79-16.15-11.54-37.91-13.4-55.95-5.27-.58-1.65-.54-4.26-2.82-4.41-1.72-.27-3.42 1.08-3.27 2.87.26 6.64.45 13.41-.26 20.03-2.75 20.73-10.51 40.9-22.58 57.99l-.93.46c.12-1.92.76-3.65 1.34-5.46 4.94-16.75 6.27-34.16 5.76-51.55-1.14-24.94-6.44-50.6-17.36-73.17 2.37-5.93 2.92-11.99 3.77-18.27.17-1.98.54-4.15.1-6.11-1.24-2.39-4.2-1.81-5.78-.12-3.21 3.02-6.97 5.12-10.87 7.1-1.59.75-3.27 2.12-5.05 2.15.03-3.68.41-7.33.27-11.03-.11-5.85.47-12.35-.98-18.05-2.51-2.19-5.03-.87-7.22.93-6.21 3.48-12.56 6.78-19.09 9.63-1.71.76-3.3.23-4.92-.44-9.51-4.16-17.84-11.61-24.82-19.17-5.18-5.79-10.66-12.06-13.41-19.42-4.13-10.59-3.4-22.9 2-32.91.98-1.68.46-4.21-1.69-4.47-2.75-.55-3.98 3.01-5.06 4.89-1.88 4.52-3.96 10.86-8.33 13.65-9.62 3.92-19.38 4.28-29.62 4.2-16.01-.04-32.01-.15-48.02.05-2.61.03-5.13.5-7.75.72 1.92-2.92 5.31-5.05 3.09-8.9-3.21-2.01-6.4-.74-9.84-.11-13.17 3.51-26.07 8.58-38.98 12.99-1.92.57-4.07 1.43-6.07 1.09.2-2.89 1.42-6.83-.91-9.16-2.1-2.2-4.77-1.96-7.52-1.43-6.94 1.76-13.21 4.65-20 7-12.89 4.49-25.88 9.28-39.17 12.47-7.57 1.74-15.13 1.93-22.85 2.07-3.66-.01-6.29 2.56-9.98 2.32-8.81.7-17.91-1.41-25.93-5.01-9.73-4.36-17.96-11.92-21.62-22.11-3.3-8.9-2.31-18.31 1.18-26.98 4.53-11.05 12.54-19.35 22.03-26.32-1.64 3.93-3.34 7.79-4.32 11.96-4.56 18.97.34 40.76 15.09 54.12 5.2 3.64 10 6.92 16.6 7.14 2.26-.11 3.76-1.33 4.19-3.58 3.36-20.57 18.01-39.2 32.77-53.21 26.21-24.39 59.37-42.09 93.02-53.84 13.1-4.47 26.44-8.04 40.01-10.71 24.65-4.54 51.41-6.16 75.97-.37Z" fill="rgba(62, 172, 44, 1)"/></g></g></svg>