<svg xmlns:dc="http://purl.org/dc/elements/1.1/" xmlns:cc="http://creativecommons.org/ns#" xmlns:rdf="http://www.w3.org/1999/02/22-rdf-syntax-ns#" xmlns:svg="http://www.w3.org/2000/svg" xmlns="http://www.w3.org/2000/svg" viewBox="0 0 210 210" fill="none"><metadata><rdf:RDF><cc:Work><dc:format>image/svg+xml</dc:format><dc:type rdf:resource="http://purl.org/dc/dcmitype/StillImage"/><dc:title>Face Generator</dc:title><dc:creator><cc:Agent><dc:title>The Visual Team</dc:title></cc:Agent></dc:creator><dc:source>https://www.figma.com/community/file/986078800058673824</dc:source><cc:license rdf:resource="https://creativecommons.org/licenses/by/4.0/"/></cc:Work><cc:License rdf:about="https://creativecommons.org/licenses/by/4.0/"><cc:permits rdf:resource="https://creativecommons.org/ns#Reproduction"/><cc:permits rdf:resource="https://creativecommons.org/ns#Distribution"/><cc:permits rdf:resource="https://creativecommons.org/ns#DerivativeWorks"/><cc:requires rdf:resource="https://creativecommons.org/ns#Notice"/><cc:requires rdf:resource="https://creativecommons.org/ns#Attribution"/></cc:License></rdf:RDF></metadata><mask id="avatarsRadiusMask"><rect width="210" height="210" rx="0" ry="0" x="0" y="0" fill="#fff"/></mask><g mask="url(#avatarsRadiusMask)"><rect fill="rgba(248, 183, 136, 1)" width="210" height="210" x="0" y="0"/><g transform="translate(86.79 138.86) scale(.71856)"><path d="M81.065 37.139c0 16.879-24.274 4.075-54.218 4.075-29.945 0-54.22 12.804-54.22-4.075 0-16.88 24.275-30.563 54.22-30.563 29.944 0 54.218 13.684 54.218 30.563Z" fill="#DE8383"/><path fill-rule="evenodd" clip-rule="evenodd" d="M74.157 22.2h-94.62c9.285-9.324 26.992-15.623 47.31-15.623 20.317 0 38.024 6.3 47.31 15.622Z" fill="#F9F9F9"/></g><g transform="translate(2 11) scale(.71856)"><ellipse rx="29" ry="17.5" transform="matrix(-1 0 0 1 88 97.5)" fill="#fff"/><mask id="eyesVariant08-a" style="mask-type:alpha" maskUnits="userSpaceOnUse" x="59" y="80" width="58" height="35"><ellipse rx="29" ry="17.5" transform="matrix(-1 0 0 1 88 97.5)" fill="#fff"/></mask><g mask="url(#eyesVariant08-a)"><circle r="18" transform="matrix(-1 0 0 1 102 98)" fill="#000"/></g><g fill="#000"><path d="M57 43.41C59.197 41.836 71.755 34 89.956 34c18.2 0 35.152 7.836 32.955 9.41 0 18.2-3.373 0-31.934 0-30.759 0-33.977 18.2-33.977 0ZM167.883 43.41c2.197-1.574 14.755-9.41 32.955-9.41 18.201 0 35.153 7.836 32.956 9.41 0 18.2-3.373 0-31.935 0-30.758 0-33.976 18.2-33.976 0Z"/></g><g><ellipse rx="29" ry="17.5" transform="matrix(-1 0 0 1 198 97.5)" fill="#fff"/><mask id="eyesVariant08-b" style="mask-type:alpha" maskUnits="userSpaceOnUse" x="169" y="80" width="58" height="35"><ellipse rx="29" ry="17.5" transform="matrix(-1 0 0 1 198 97.5)" fill="#fff"/></mask><g mask="url(#eyesVariant08-b)"><circle r="18" transform="matrix(-1 0 0 1 212 98)" fill="#000"/></g></g></g><g transform="translate(14.934 89.19) scale(.71856)"><g fill="#F88888"><rect x="11" y="16" width="56.261" height="43.401" rx="21.701"/><rect x="191" y="16" width="56.261" height="43.401" rx="21.701"/></g></g><g transform="translate(80.323 79.849) scale(.71856)"><g fill="#000" fill-opacity=".19"><rect x="25.885" y="51.461" width="11.691" height="8.885" rx="4.443" transform="rotate(-90 25.885 51.461)"/><rect x="43.656" y="51.461" width="11.691" height="8.885" rx="4.443" transform="rotate(-90 43.656 51.461)"/><path d="M61.242 41.382c.121-.816.184-1.65.184-2.5C61.426 29.558 53.867 22 44.544 22H33.882C24.558 22 17 29.558 17 38.882c0 .85.063 1.684.184 2.5C18.392 33.244 25.408 27 33.882 27h10.662c8.474 0 15.49 6.244 16.698 14.382Z"/></g></g></g></svg>